<?xml version="1.0" encoding="UTF-8" standalone="no"?>
<!-- Created with Inkscape (http://www.inkscape.org/) -->

<svg
   width="300mm"
   height="300mm"
   viewBox="0 0 300 300"
   version="1.1"
   id="svg1"
   inkscape:version="1.4.3 (0d15f75, 2025-12-25)"
   sodipodi:docname="record_logo.svg"
   xmlns:inkscape="http://www.inkscape.org/namespaces/inkscape"
   xmlns:sodipodi="http://sodipodi.sourceforge.net/DTD/sodipodi-0.dtd"
   xmlns="http://www.w3.org/2000/svg"
   xmlns:svg="http://www.w3.org/2000/svg">
  <sodipodi:namedview
     id="namedview1"
     pagecolor="#ffffff"
     bordercolor="#000000"
     borderopacity="0.25"
     inkscape:showpageshadow="2"
     inkscape:pageopacity="0.0"
     inkscape:pagecheckerboard="0"
     inkscape:deskcolor="#d1d1d1"
     inkscape:document-units="mm"
     inkscape:zoom="0.52473017"
     inkscape:cx="1130.1046"
     inkscape:cy="534.56045"
     inkscape:window-width="1776"
     inkscape:window-height="1051"
     inkscape:window-x="-9"
     inkscape:window-y="-9"
     inkscape:window-maximized="1"
     inkscape:current-layer="layer1" />
  <defs
     id="defs1">
    <linearGradient
       id="swatch4"
       inkscape:swatch="solid">
      <stop
         style="stop-color:#000000;stop-opacity:1;"
         offset="0"
         id="stop4" />
    </linearGradient>
  </defs>
  <g
     inkscape:label="Layer 1"
     inkscape:groupmode="layer"
     id="layer1">
    <rect
       style="fill:#292525;fill-opacity:1;stroke:#f2ff43;stroke-width:2.79345;stroke-dasharray:none;stroke-opacity:1"
       id="rect1"
       width="151.03554"
       height="125.00793"
       x="28.126297"
       y="90.523788"
       ry="5.5000291"
       rx="5.3654294" />
    <path
       sodipodi:type="star"
       style="fill:#292525;fill-opacity:1;stroke:#f2ff43;stroke-width:3.06501;stroke-dasharray:none;stroke-opacity:1"
       id="path6"
       inkscape:flatsided="true"
       sodipodi:sides="3"
       sodipodi:cx="205.36855"
       sodipodi:cy="133.70348"
       sodipodi:r1="66.532227"
       sodipodi:r2="33.266113"
       sodipodi:arg1="-3.1415927"
       sodipodi:arg2="-2.0943951"
       inkscape:rounded="0.02"
       inkscape:randomized="2.7755576e-17"
       d="m 138.83632,133.70348 c 0,-2.30474 97.80237,-58.770976 99.79834,-57.618604 1.99596,1.152372 1.99597,114.084824 0,115.237194 -1.99597,1.15237 -99.79834,-55.31385 -99.79834,-57.61859 z"
       inkscape:transform-center-x="16.695179"
       transform="matrix(1.003735,0,0,0.85209087,46.718105,34.215939)" />
    <circle
       style="fill:#292525;fill-opacity:1;stroke:#f2ff43;stroke-width:1.92544;stroke-dasharray:none;stroke-opacity:1"
       id="path7"
       cx="103.64423"
       cy="149.10867"
       r="21.614119" />
    <path
       style="fill:#f2ff43;fill-opacity:1;stroke:none;stroke-width:3.06501;stroke-dasharray:none;stroke-opacity:1"
       id="path8"
       d="m 130.52893,71.670023 c 0.2255,-2.564088 0.13312,-5.156406 0.54211,-7.705 0.36764,-2.290937 0.62347,-2.785017 1.33933,-4.978162 1.07694,-2.612236 2.63089,-5.044083 5.04368,-6.612961 1.37677,-0.895215 1.99509,-0.98551 3.55433,-1.502154 5.09896,-1.137438 10.29159,-0.0295 15.37842,0.627042 5.36869,0.738854 10.79994,1.323123 16.21615,0.733549 1.16568,-0.126886 2.31829,-0.353788 3.47744,-0.530683 4.70466,-1.025551 9.27769,-2.708896 13.14522,-5.644313 2.33973,-1.775836 3.06543,-2.756456 5.02464,-4.893594 2.08558,-2.440701 3.72029,-5.194419 5.3008,-7.972705 0,0 -3.258,-1.869165 -3.258,-1.869165 v 0 c -1.44905,2.815704 -2.98888,5.586804 -5.0348,8.026773 -1.93368,2.121522 -2.63252,3.083126 -4.95636,4.832969 -3.84724,2.896952 -8.4015,4.529725 -13.07314,5.511848 -1.15517,0.167322 -2.30418,0.384746 -3.4655,0.501967 -5.42569,0.547661 -10.8584,-0.09056 -16.23145,-0.828434 -5.15799,-0.688922 -10.42466,-1.790025 -15.59026,-0.574056 -1.61975,0.559065 -2.21886,0.643374 -3.63811,1.603084 -2.43687,1.647833 -3.98993,4.166222 -5.06659,6.84526 -0.70966,2.161617 -1.00007,2.782269 -1.39167,5.034392 -0.43486,2.500958 -0.38175,5.057602 -0.77974,7.562476 z" />
    <path
       style="fill:#f2ff43;fill-opacity:1;stroke:none;stroke-width:3.06501;stroke-dasharray:none;stroke-opacity:1"
       id="path9"
       d="m 204.98911,18.739156 c 0.0233,-1.403086 -0.26038,-2.590537 -1.04588,-3.75731 -1.51087,-1.524246 -3.4442,-2.819119 -5.55886,-3.282771 -0.59824,-0.131167 -1.05954,-0.16845 -1.66861,-0.238809 -0.88263,-0.01732 -1.88821,-0.05678 -2.68179,0.423635 -0.90838,0.549921 -1.32593,1.526837 -1.74583,2.440614 -0.35022,1.480817 -0.22156,3.153943 0.85357,4.324804 0.17806,0.193912 0.39342,0.349925 0.59013,0.524888 1.83706,1.214498 0.62512,0.432462 4.5511,2.653142 0.18609,0.105259 0.75136,0.408096 0.56679,0.300202 -4.78553,-2.797428 -3.68168,-2.137096 -2.60391,-1.464344 -5.3e-4,-0.03808 0.0338,-0.09952 -0.001,-0.114234 -0.0902,-0.03782 -0.19559,-0.0122 -0.29339,-0.0092 -0.222,0.0067 -0.44333,0.0284 -0.66522,0.03815 -0.8413,0.03694 -1.68302,0.04081 -2.52494,0.04444 -0.96178,0.01158 -2.18733,0.325468 -2.54398,1.361336 -0.0494,0.143529 -0.0455,0.300164 -0.0683,0.450245 0.12363,1.012233 0.78366,1.815454 1.45193,2.541429 1.86615,1.875294 4.37728,2.908833 6.66763,4.149001 0,0 -3.02791,-2.3954 -3.02791,-2.3954 v 0 c 0.81559,0.504079 1.64005,0.994088 2.44678,1.512232 0.24439,0.156964 -0.50937,-0.279533 -0.75892,-0.428149 -0.62943,-0.374854 -1.20404,-0.803132 -1.71225,-1.333907 -0.64973,-0.633153 -1.26467,-1.36247 -1.56466,-2.230519 -0.006,-0.101441 -0.0407,-0.205518 -0.017,-0.304324 0.22309,-0.931501 1.52914,-1.025513 2.26557,-1.045186 0.85087,-0.0096 1.70375,-0.0087 2.55387,-0.05016 0.27087,-0.01319 0.88526,-0.0013 1.16741,-0.198606 0.10867,-0.076 0.15709,-0.213693 0.23563,-0.32054 -0.0338,-0.252068 0.007,-0.30973 -0.26323,-0.471816 -1.24909,-0.749652 -2.52282,-1.457491 -3.78888,-2.178101 -0.18374,-0.104581 -0.74151,-0.406143 -0.56025,-0.297315 0.90463,0.543148 1.82359,1.062115 2.73098,1.600638 0.20978,0.124501 -0.42533,-0.238992 -0.638,-0.358488 -0.43267,-0.320984 -0.82325,-0.557202 -1.14257,-1.006188 -0.6982,-0.981702 -0.78356,-2.259477 -0.54979,-3.398153 0.37507,-0.825629 0.73575,-1.711729 1.59302,-2.163588 0.78316,-0.412796 1.74035,-0.323389 2.58283,-0.278304 0.61853,0.09021 1.04094,0.128557 1.64028,0.306212 0.23222,0.06883 0.88224,0.388747 0.68049,0.254745 -5.12993,-3.407207 -2.83616,-1.733323 -1.78396,-0.901424 0.13798,0.162501 0.29663,0.309505 0.41393,0.487503 0.57829,0.877467 0.73868,1.995348 0.69787,3.020327 z" />
    <path
       style="fill:#f2ff43;fill-opacity:1;stroke:none;stroke-width:3.06501;stroke-dasharray:none;stroke-opacity:1"
       id="path10"
       d="m 217.59038,19.411538 c 1.20371,0.500092 3.60343,1.446663 -1.72288,-1.073263 -0.2148,-0.101621 0.36934,0.300044 0.53986,0.465529 0.39687,0.385149 0.47004,0.527288 0.78068,0.963281 0.6565,1.040329 0.45362,1.713958 -0.41115,2.523493 -1.35688,1.025997 -3.06452,1.217666 -4.70377,1.402685 -0.77977,0.06179 -0.70306,0.06199 -1.41553,0.09752 -0.1578,0.0079 -0.6032,-0.0509 -0.47248,0.03784 3.39417,2.303949 2.07904,2.434987 3.73352,2.178028 0.92084,-0.07446 1.97572,-0.377985 2.86991,0.0033 0.1872,0.07983 0.34039,0.223134 0.51059,0.3347 -0.96564,-0.515862 -1.88185,-1.137474 -2.89694,-1.547586 -0.1941,-0.07842 0.25495,0.334539 0.3527,0.519666 0.10523,0.199303 0.18733,0.411439 0.25282,0.627095 0.19175,0.631405 0.12247,1.156886 0.004,1.788502 -0.38205,1.250926 -1.28513,2.054503 -2.39905,2.657401 -1.23506,0.646988 -2.64115,0.766185 -4.00844,0.865047 -0.21939,0.0098 -0.43878,0.01969 -0.65816,0.02955 0,0 3.17011,2.277575 3.17011,2.277575 v 0 c 0.22088,-0.01357 0.44176,-0.02715 0.66264,-0.04073 1.41037,-0.133019 2.85171,-0.298643 4.11037,-1.000749 1.17963,-0.703075 2.13684,-1.603042 2.5742,-2.944752 0.20193,-0.996182 0.24602,-1.700223 -0.14211,-2.671077 -0.085,-0.21255 -0.11951,-0.479917 -0.30359,-0.615974 -1.19634,-0.884212 -2.5115,-1.595181 -3.76725,-2.392772 -0.19319,-0.07972 -0.37763,-0.185318 -0.57957,-0.239162 -0.9692,-0.258428 -2.0124,-0.0038 -2.98554,0.0823 -1.64533,0.294285 -0.50129,-0.0023 2.77525,2.368161 0.004,0.0032 0.92891,-0.09178 0.97865,-0.09667 0.26407,-0.02593 0.52791,-0.05416 0.79187,-0.08124 1.71712,-0.229708 3.48296,-0.479969 4.88515,-1.586473 0.9049,-0.915084 1.33624,-1.798494 0.65587,-3.008595 -1.39811,-2.209509 -3.8433,-3.62293 -6.34926,-4.293088 z" />
    <path
       style="fill:#f2ff43;fill-opacity:1;stroke:none;stroke-width:3.06501;stroke-dasharray:none;stroke-opacity:1"
       id="path11"
       d="m 209.65535,11.273485 c 0.0685,-1.5055794 0.28088,-3.0130318 0.13646,-4.5185739 0,0 -3.51041,-1.7310428 -3.51041,-1.7310428 v 0 c 0.24819,1.4609792 0.0246,2.9501211 -0.12277,4.4128248 z" />
    <path
       style="fill:#f2ff43;fill-opacity:1;stroke:none;stroke-width:3.06501;stroke-dasharray:none;stroke-opacity:1"
       id="path12"
       d="m 215.50767,13.610835 c 1.23424,-1.067693 2.64371,-1.878047 4.17422,-2.429716 0,0 -3.23198,-2.1727824 -3.23198,-2.1727824 v 0 c -1.55848,0.6269903 -2.98156,1.5093504 -4.30775,2.5401134 z" />
    <path
       style="fill:#f2ff43;fill-opacity:1;stroke:none;stroke-width:3.06501;stroke-dasharray:none;stroke-opacity:1"
       id="path13"
       d="m 169.06955,79.465135 c 1.02138,-2.643159 2.06098,-5.314122 3.66243,-7.671586 0.41662,-0.61331 0.89243,-1.184262 1.33864,-1.776391 0.52193,-0.529905 1.00047,-1.106358 1.56578,-1.58971 3.27198,-2.797603 7.64803,-3.875251 11.72619,-4.862988 4.12174,-0.920036 8.32625,-1.16562 12.53376,-1.028163 3.84345,0.220387 7.64102,0.915612 11.48582,1.139592 0.82868,0.04827 1.6594,0.05083 2.4891,0.07625 3.25249,-0.0064 6.52886,-0.455986 9.54937,-1.714051 1.75659,-0.731633 2.25305,-1.121251 3.84044,-2.100304 2.74342,-1.879775 4.68185,-4.585198 6.69866,-7.169923 0,0 -3.26139,-1.93983 -3.26139,-1.93983 v 0 c -1.93723,2.579503 -3.88473,5.213652 -6.54189,7.10683 -0.58644,0.363331 -1.15276,0.761344 -1.75932,1.089994 -3.52309,1.908926 -7.48176,2.631731 -11.46128,2.579359 -0.82596,-0.03067 -1.65298,-0.04021 -2.47788,-0.09202 -3.86408,-0.242689 -7.67982,-0.968116 -11.54713,-1.158426 -1.78294,-0.04668 -2.35866,-0.09288 -4.14122,-0.01519 -2.82573,0.123177 -5.63071,0.565936 -8.39111,1.167064 -4.12565,1.053415 -8.5669,2.153166 -11.87393,5.006769 -0.57497,0.496136 -1.0614,1.086466 -1.59209,1.629698 -0.4529,0.601734 -0.93382,1.183368 -1.3587,1.805202 -1.61517,2.363898 -2.65616,5.034293 -3.93049,7.582299 z" />
    <path
       style="fill:#f2ff43;fill-opacity:1;stroke:none;stroke-width:3.06501;stroke-dasharray:none;stroke-opacity:1"
       id="path14"
       d="m 247.38941,31.032624 c -1.51793,-0.702691 -3.23748,-0.947433 -4.88949,-1.122077 -1.38987,-0.155839 -2.85592,0.02103 -3.80197,1.164863 -0.18529,0.224028 -0.3199,0.485545 -0.47985,0.728316 -0.12159,0.26675 -0.30741,0.51276 -0.36478,0.800248 -0.30257,1.516258 0.648,4.135848 1.01515,5.685827 0.31104,1.630418 0.0875,1.49012 -1.32254,1.291926 -1.34556,-0.378632 -2.7331,-0.553731 -4.12168,-0.683752 -0.2254,0.01894 -0.45838,-0.0042 -0.67618,0.05682 -0.83616,0.234283 -1.62417,1.016783 -2.0123,1.771478 -0.1113,0.216408 -0.17804,0.452969 -0.26706,0.679455 -0.26751,0.695765 -0.27412,1.404414 -0.25863,2.135111 0,0 3.47952,1.755537 3.47952,1.755537 v 0 c -0.0407,-0.68181 -0.0599,-1.337434 0.18516,-1.991857 0.48643,-1.247341 1.23769,-2.134 2.6788,-2.085303 1.39634,0.146648 2.77123,0.388696 4.13977,0.699788 0.60441,0.04307 1.58566,0.126013 1.79949,-0.662646 0.0708,-0.26103 -0.11583,-1.126122 -0.14553,-1.298255 -0.27918,-1.099084 -0.61921,-2.184836 -0.86597,-3.291874 -0.1152,-0.516795 -0.3552,-1.581206 -0.25231,-2.156979 0.0479,-0.267763 0.2239,-0.495797 0.33585,-0.743696 0.14638,-0.215114 0.26779,-0.449543 0.43915,-0.645348 0.90515,-1.034285 2.32988,-1.041379 3.58705,-0.909058 1.66229,0.208561 3.38694,0.482121 4.86902,1.305796 z" />
    <path
       style="fill:#f2ff43;fill-opacity:1;stroke:none;stroke-width:3.06501;stroke-dasharray:none;stroke-opacity:1"
       id="path15"
       d="m 255.66395,46.151598 c 0.0703,1.643367 -0.0333,2.327728 -1.40747,3.306324 -1.09732,0.642778 -2.33417,0.72322 -3.56198,0.518025 -0.47937,0.01746 -1.55247,-0.760754 -1.93126,-0.410155 -0.11806,0.109263 -0.17175,0.272034 -0.25762,0.408051 -0.33231,1.767091 -1.43654,2.560998 -2.93219,3.395641 -1.33809,0.595048 -2.77471,1.090497 -4.24413,1.229159 -0.35778,0.03376 -0.71858,0.01484 -1.07788,0.02228 0,0 3.11558,2.244903 3.11558,2.244903 v 0 c 0.37045,-0.02133 0.74305,-0.01884 1.11137,-0.06401 1.49736,-0.183627 2.95154,-0.706152 4.30998,-1.339372 1.46219,-0.82841 2.78886,-1.73537 3.13098,-3.493539 0.0287,-0.04026 0.0394,-0.104773 0.0862,-0.120783 0.26472,-0.09055 1.51071,0.647248 1.82828,0.469697 1.30636,0.114861 2.59858,-0.03287 3.71822,-0.774563 1.40325,-1.093806 1.63416,-1.84509 1.63153,-3.598307 z" />
    <path
       style="fill:#f2ff43;fill-opacity:1;stroke:none;stroke-width:3.06501;stroke-dasharray:none;stroke-opacity:1"
       id="path16"
       d="m 256.74971,30.49888 c 0.28247,-1.316283 0.96796,-2.473436 1.65526,-3.61085 0,0 -3.36776,-1.949122 -3.36776,-1.949122 v 0 c -0.68457,1.182241 -1.36148,2.378117 -1.76039,3.693694 z" />
    <path
       style="fill:#f2ff43;fill-opacity:1;stroke:none;stroke-width:3.06501;stroke-dasharray:none;stroke-opacity:1"
       id="path17"
       d="m 266.60342,39.005893 c 1.3751,0.142584 2.72794,0.461957 4.06898,0.789567 0,0 -3.05004,-2.326457 -3.05004,-2.326457 v 0 c -1.38144,-0.318305 -2.76889,-0.635485 -4.17828,-0.802564 z" />
  </g>
</svg>
